<?xml version="1.0" encoding="iso-8859-1"?>
<!-- Generator: Adobe Illustrator 19.0.0, SVG Export Plug-In . SVG Version: 6.00 Build 0)  -->
<svg version="1.1" id="Capa_1" xmlns="http://www.w3.org/2000/svg" xmlns:xlink="http://www.w3.org/1999/xlink" x="0px" y="0px"
	 viewBox="0 0 512 512" style="enable-background:new 0 0 512 512;" xml:space="preserve">
<g>
	<g>
		<path d="M491,262.604v-48.089c0-41.632-29.564-76.486-68.8-84.677l19.952-19.952h36.665c5.523,0,10-4.477,10-10s-4.477-10-10-10
			H438.01c-2.652,0-5.196,1.054-7.071,2.929l-25.357,25.356c-7.574-16.663-24.365-28.285-43.83-28.285h-13.957
			c-23.11,0-42.461,16.374-47.077,38.128H296.5h-75.358l18.831-18.83l1.632,1.632c1.953,1.953,4.512,2.929,7.071,2.929
			c2.559,0,5.119-0.976,7.071-2.929c3.905-3.905,3.905-10.237,0-14.143l-18.396-18.396c-3.905-3.905-10.237-3.905-14.143,0
			c-3.905,3.905-3.905,10.237,0,14.143l2.622,2.622l-32.973,32.972h-15.893l21.184-36.692c4.991-8.644,4.991-18.965,0-27.609
			c-4.99-8.644-13.929-13.804-23.91-13.804c-9.832,0-18.993,5.29-23.91,13.804l-37.458,64.88
			c-50.793,5.418-90.49,48.523-90.49,100.731v32.737C9.338,266.819,0,279.347,0,294.016c0,18.748,15.252,34,34,34h50
			c0.304,0,0.604-0.019,0.902-0.046c10.548,14.553,27.671,24.046,46.979,24.046c19.288,0,36.396-9.472,46.947-24h48.919
			c0.228,0.111,0.455,0.222,0.694,0.316l81.838,32.416c1.209,0.479,2.454,0.706,3.68,0.706c3.981,0,7.745-2.395,9.3-6.32
			c2.034-5.135-0.48-10.946-5.615-12.979l-35.695-14.139h70.984c10.551,14.528,27.659,24,46.947,24c19.288,0,36.396-9.472,46.947-24
			H478c18.748,0,34-15.252,34-34C512,279.87,503.315,267.72,491,262.604z M460.048,178.015c5.435,8.243,9.077,17.76,10.39,28
			h-27.122c-7.72,0-14-6.28-14-14c0-7.72,6.28-14,14-14H460.048z M347.795,109.887h13.957c11.989,0,22.251,7.541,26.292,18.128
			h-66.542C325.543,117.428,335.806,109.887,347.795,109.887z M167.65,73.714c1.355-2.347,3.88-3.805,6.589-3.805
			c3.965,0,5.929,2.661,6.59,3.805c0.661,1.144,1.982,4.175,0,7.609l-26.958,46.692h-17.572L167.65,73.714z M60.525,178.202
			c6.686,1.052,11.821,6.836,11.821,13.813c0,7.72-6.28,14-14,14H45.803C48.881,195.748,53.934,186.33,60.525,178.202z
			 M75.599,308.016H34c-7.72,0-14-6.28-14-14c0-7.72,6.28-14,14-14h41.599c-1.116,4.486-1.719,9.173-1.719,14
			C73.88,298.843,74.482,303.53,75.599,308.016z M131.881,332.016c-20.953,0-38-17.047-38-38s17.047-38,38-38s38,17.047,38,38
			S152.834,332.016,131.881,332.016z M343.599,308.016H188.162c1.116-4.486,1.719-9.173,1.719-14c0-4.827-0.602-9.514-1.719-14
			h155.437c-1.116,4.486-1.719,9.173-1.719,14C341.88,298.843,342.482,303.53,343.599,308.016z M399.881,332.016
			c-20.953,0-38-17.047-38-38s17.047-38,38-38s38,17.047,38,38S420.834,332.016,399.881,332.016z M399.881,236.015
			c-19.309,0-36.433,9.494-46.981,24.049c-0.314-0.03-0.631-0.048-0.953-0.048H178.828c-10.551-14.528-27.659-24-46.947-24
			c-19.308,0-36.431,9.492-46.979,24.046c-0.297-0.027-0.597-0.046-0.902-0.046H42.381v-30.691c0-1.11,0.04-2.21,0.084-3.31h15.88
			c18.748,0,34-15.252,34-34c0-12.111-6.37-22.756-15.931-28.781c13.333-9.565,29.652-15.219,47.276-15.219h35.922
			c0.008,0,0.015,0.001,0.023,0.001s81.611-0.001,81.611-0.001C222.167,163.895,210,187.81,210,214.515v11.5c0,5.523,4.477,10,10,10
			s10-4.477,10-10v-11.5c0-36.668,29.832-66.5,66.5-66.5h108c12.963,0,25.061,3.742,35.299,10.182
			c-17.101,1.766-30.483,16.258-30.483,33.818c0,18.748,15.252,34,34,34H471v34h-24.172
			C436.277,245.487,419.169,236.015,399.881,236.015z M478,308.016h-21.838c1.116-4.486,1.719-9.173,1.719-14
			c0-4.827-0.602-9.514-1.719-14H478c7.72,0,14,6.28,14,14C492,301.736,485.72,308.016,478,308.016z"/>
	</g>
</g>
<g>
	<g>
		<path d="M314.29,389.036L205.3,345.863c-5.134-2.037-10.946,0.48-12.98,5.614c-2.034,5.135,0.48,10.946,5.615,12.979
			l108.99,43.173c1.208,0.479,2.454,0.706,3.68,0.706c3.981,0,7.745-2.395,9.3-6.32C321.939,396.88,319.425,391.069,314.29,389.036z
			"/>
	</g>
</g>
<g>
	<g>
		<path d="M84.558,30.431L57.056,2.929c-3.906-3.906-10.237-3.904-14.142,0c-3.905,3.905-3.906,10.237,0,14.142l27.502,27.502
			c1.953,1.953,4.512,2.929,7.071,2.929s5.119-0.977,7.071-2.929C88.463,40.668,88.464,34.336,84.558,30.431z"/>
	</g>
</g>
<g>
	<g>
		<path d="M136.03,23.5l-8.628-17.839c-2.406-4.972-8.383-7.052-13.357-4.648c-4.972,2.405-7.053,8.385-4.648,13.357l8.628,17.839
			c1.727,3.569,5.294,5.648,9.01,5.648c1.46,0,2.944-0.322,4.347-1C136.354,34.452,138.435,28.472,136.03,23.5z"/>
	</g>
</g>
<g>
	<g>
		<path d="M72.194,78.041l-21.563-10.43c-4.973-2.405-10.952-0.324-13.356,4.647c-2.406,4.972-0.325,10.952,4.647,13.357
			l21.563,10.43c1.403,0.679,2.887,1,4.347,1c3.715,0,7.283-2.08,9.009-5.648C79.246,86.425,77.165,80.445,72.194,78.041z"/>
	</g>
</g>
<g>
	<g>
		<path d="M406.95,286.94c-1.86-1.86-4.44-2.92-7.07-2.92s-5.21,1.061-7.07,2.92c-1.86,1.87-2.93,4.44-2.93,7.08
			c0,2.63,1.07,5.2,2.93,7.07c1.86,1.86,4.44,2.93,7.07,2.93s5.21-1.069,7.07-2.93c1.86-1.87,2.93-4.44,2.93-7.07
			C409.88,291.38,408.81,288.81,406.95,286.94z"/>
	</g>
</g>
<g>
	<g>
		<path d="M138.95,286.94c-1.86-1.86-4.44-2.92-7.07-2.92s-5.21,1.061-7.07,2.92c-1.86,1.87-2.93,4.44-2.93,7.08
			c0,2.63,1.07,5.2,2.93,7.07c1.86,1.86,4.44,2.93,7.07,2.93s5.21-1.069,7.07-2.93c1.86-1.87,2.93-4.44,2.93-7.07
			C141.88,291.38,140.81,288.81,138.95,286.94z"/>
	</g>
</g>
<g>
	<g>
		<path d="M60.07,494.93C58.21,493.07,55.63,492,53,492s-5.21,1.069-7.07,2.93C44.07,496.79,43,499.37,43,502s1.07,5.21,2.93,7.069
			C47.79,510.93,50.37,512,53,512s5.21-1.07,7.07-2.931C61.93,507.21,63,504.63,63,502S61.93,496.79,60.07,494.93z"/>
	</g>
</g>
<g>
	<g>
		<path d="M459,492h-78.787v-15.774c0-21.078-17.148-38.226-38.225-38.226H316.02l-113.736-48.856
			c-5.076-2.182-10.956,0.167-13.135,5.241c-2.18,5.075,0.167,10.956,5.241,13.136L265.345,438h-95.571
			c-21.078,0-38.225,17.147-38.225,38.226V492H95c-5.523,0-10,4.478-10,10c0,5.522,4.477,10,10,10h364c5.523,0,10-4.478,10-10
			C469,496.478,464.523,492,459,492z M360.213,492H151.549v-15.774c0-10.05,8.176-18.226,18.225-18.226h144.125
			c0.02,0,0.039,0.003,0.059,0.003c0.014,0,0.027-0.003,0.04-0.003h27.99c10.049,0,18.225,8.176,18.225,18.226V492z"/>
	</g>
</g>
<g>
	<g>
		<path d="M313.962,185.297h-33.955c-5.523,0-10,4.477-10,10s4.477,10,10,10h33.955c5.523,0,10-4.477,10-10
			S319.485,185.297,313.962,185.297z"/>
	</g>
</g>
<g>
	<g>
		<path d="M361.84,188.23c-1.85-1.87-4.43-2.93-7.07-2.93c-2.63,0-5.21,1.06-7.07,2.93c-1.86,1.86-2.93,4.43-2.93,7.07
			c0,2.63,1.07,5.21,2.93,7.07s4.44,2.93,7.07,2.93c2.64,0,5.21-1.07,7.07-2.93c1.87-1.86,2.93-4.44,2.93-7.07
			C364.77,192.66,363.71,190.09,361.84,188.23z"/>
	</g>
</g>
<g>
</g>
<g>
</g>
<g>
</g>
<g>
</g>
<g>
</g>
<g>
</g>
<g>
</g>
<g>
</g>
<g>
</g>
<g>
</g>
<g>
</g>
<g>
</g>
<g>
</g>
<g>
</g>
<g>
</g>
</svg>
