<?xml version="1.0" encoding="iso-8859-1"?>
<!-- Generator: Adobe Illustrator 19.0.0, SVG Export Plug-In . SVG Version: 6.00 Build 0)  -->
<svg version="1.1" id="Capa_1" xmlns="http://www.w3.org/2000/svg" xmlns:xlink="http://www.w3.org/1999/xlink" x="0px" y="0px"
	 viewBox="0 0 512 512" style="enable-background:new 0 0 512 512;" xml:space="preserve">
<g>
	<g>
		<path d="M463.551,173.637c2.16-7.527,3.252-15.307,3.252-23.228c0-46.521-37.848-84.369-84.369-84.369
			c-6.291,0-12.501,0.689-18.567,2.054C351.846,28.048,314.878,0,272.146,0c-52.832,0-95.813,42.981-95.813,95.813
			c0,18.234,5.167,35.993,14.942,51.357c2.959,4.649,9.128,6.022,13.779,3.063c4.65-2.959,6.021-9.128,3.063-13.779
			c-7.735-12.156-11.823-26.21-11.823-40.642c0-41.824,34.028-75.852,75.852-75.852c36.789,0,68.18,26.253,74.641,62.423
			c0.52,2.91,2.302,5.439,4.867,6.909c2.566,1.468,5.651,1.723,8.422,0.697c7.151-2.647,14.672-3.989,22.355-3.989
			c35.515,0,64.408,28.894,64.408,64.408c0,8.405-1.607,16.597-4.777,24.349c-2.027,4.956,0.22,10.629,5.091,12.855
			c26.963,12.318,44.385,39.406,44.385,69.012c0,9.874-2.466,21.459-6.595,30.99c-3.559,8.215-9.175,15.314-9.232,15.385
			c-3.435,4.302-2.74,10.574,1.558,14.018c1.842,1.475,4.046,2.191,6.235,2.191c2.925,0,5.824-1.28,7.796-3.74
			c0.295-0.37,7.307-9.178,11.96-19.918c5.237-12.086,8.241-26.275,8.241-38.926C511.501,222.285,492.948,190.626,463.551,173.637z"
			/>
	</g>
</g>
<g>
	<g>
		<path d="M454.7,398.235V266.818h9.227c5.511,0,9.981-4.469,9.981-9.981s-4.469-9.98-9.981-9.98h-49.852
			c-24.899,0-48.309,9.697-65.916,27.303l-26.11,26.111v-90.538l28.765-28.765c3.897-3.897,3.897-10.217,0-14.115
			c-3.898-3.896-10.216-3.896-14.115,0l-14.65,14.65v-56.746c0-5.511-4.469-9.981-9.981-9.981s-9.98,4.469-9.98,9.981v74.77v6.072
			v118.768c0,4.037,2.432,7.676,6.161,9.221c1.235,0.511,2.532,0.76,3.818,0.76c2.598,0,5.15-1.014,7.059-2.923l43.148-43.149
			c3.094-3.094,6.426-5.859,9.939-8.316v118.348c-15.514,1.102-27.802,14.067-27.802,29.857c0,16.51,13.432,29.942,29.942,29.942
			h79.844c16.51,0,29.942-13.432,29.942-29.942C484.137,411.823,470.977,398.506,454.7,398.235z M392.173,270.143
			c6.999-2.183,14.362-3.326,21.902-3.326h20.664v131.404h-42.566V270.143z M454.196,438.144h-79.844c-5.503,0-9.98-4.477-9.98-9.98
			c0-5.503,4.477-9.981,9.98-9.981h79.844c5.503,0,9.981,4.477,9.981,9.981C464.176,433.667,459.699,438.144,454.196,438.144z"/>
	</g>
</g>
<g>
	<g>
		<path d="M31.513,224.984c-4.702-2.867-10.865-1.352-13.735,3.354l-0.111,0.181c-2.869,4.707-1.362,10.819,3.344,13.688
			c1.614,0.984,3.399,1.452,5.166,1.452c3.379,0,6.684-1.716,8.569-4.807l0.111-0.181C37.727,233.965,36.22,227.853,31.513,224.984z
			"/>
	</g>
</g>
<g>
	<g>
		<path d="M436.716,494.963c-1.855-1.857-4.43-2.924-7.055-2.924s-5.2,1.067-7.056,2.924s-2.924,4.431-2.924,7.056
			s1.067,5.2,2.924,7.055c1.856,1.856,4.431,2.925,7.056,2.925s5.2-1.068,7.055-2.925c1.856-1.855,2.925-4.43,2.925-7.055
			S438.573,496.82,436.716,494.963z"/>
	</g>
</g>
<g>
	<g>
		<path d="M383.589,492.039h-61.54V379.03l34.229-34.229c3.897-3.897,3.897-10.217,0-14.115c-3.898-3.896-10.216-3.896-14.115,0
			l-37.152,37.153c-1.871,1.872-2.923,4.41-2.923,7.057v117.143h-14.638V299.415c0-3.323-1.654-6.427-4.411-8.283l-29.593-19.898
			c-0.271-4.001-0.836-7.922-1.678-11.742h25.701c5.511,0,9.98-4.469,9.98-9.98V124.756c0-5.511-4.469-9.981-9.98-9.981
			c-5.511,0-9.981,4.469-9.981,9.981v114.776h-23.024c-12.307-23.354-35.816-39.928-63.342-42.484
			c1.614-5.233,2.442-10.713,2.442-16.31c0-30.511-24.823-55.334-55.334-55.334s-55.335,24.823-55.335,55.334
			c0,3.135,0.26,6.231,0.773,9.275c-7.736,1.424-15.202,3.938-22.311,7.521c-4.922,2.48-6.902,8.481-4.42,13.405
			c2.48,4.921,8.481,6.901,13.405,4.42c8.279-4.173,17.205-6.439,26.532-6.737c3.3-0.105,6.334-1.835,8.104-4.622
			c1.771-2.786,2.05-6.267,0.745-9.299c-1.902-4.419-2.866-9.117-2.866-13.963c0-19.505,15.868-35.373,35.374-35.373
			c19.505,0,35.373,15.868,35.373,35.373c0,7.464-2.306,14.608-6.669,20.657c-2.321,3.219-2.516,7.506-0.495,10.92
			c2.021,3.416,5.879,5.315,9.81,4.824c2.593-0.319,5.017-0.475,7.414-0.475c33.096,0,60.024,26.924,60.027,60.021
			c0,0.009,0,0.018,0,0.027c-0.006,16.54-6.612,31.951-18.605,43.395c-3.559,3.397-4.112,8.882-1.302,12.921
			c5.83,8.378,8.911,18.209,8.911,28.432c0,27.496-22.369,49.866-49.866,49.866c-16.166,0-31.282-7.933-40.587-20.965v-18.944
			l25.226-25.226l24.058,13.151c1.52,0.831,3.161,1.226,4.779,1.226c3.531,0,6.953-1.878,8.766-5.195
			c2.644-4.838,0.866-10.902-3.97-13.545l-18.925-10.345l9.717-9.717c3.897-3.897,3.897-10.217,0-14.115
			c-3.898-3.896-10.216-3.896-14.115,0l-19.008,19.011c-0.011,0.01-0.021,0.02-0.03,0.03l-16.495,16.495v-86.688
			c0-5.511-4.469-9.981-9.98-9.981c-5.511,0-9.981,4.469-9.981,9.981v38.106l-31.727-31.726c-3.898-3.896-10.216-3.896-14.115,0
			c-3.897,3.897-3.897,10.217,0,14.115l44.773,44.772c0.337,0.337,0.699,0.635,1.069,0.913v44.599c0,0.003,0,0.007,0,0.01v18.604
			c-0.06,0.099-0.132,0.189-0.188,0.29c-8.641,15.51-25.018,25.145-42.739,25.145c-26.961,0-48.896-21.935-48.896-48.896
			c0-14.299,6.249-27.846,17.145-37.164c4.07-3.481,4.667-9.555,1.351-13.762c-8.919-11.317-13.631-24.914-13.631-39.321
			c0-5.511-4.469-9.981-9.98-9.981s-9.981,4.469-9.981,9.981c0,15.905,4.37,31.056,12.714,44.313
			C6.815,329.057,0.498,345.36,0.498,362.431c0,37.968,30.889,68.857,68.857,68.857c15.844,0,30.915-5.482,42.927-15.063v75.814
			H64.375c-5.511,0-9.981,4.469-9.981,9.98c0,5.511,4.469,9.981,9.981,9.981H383.59c5.511,0,9.981-4.469,9.981-9.981
			C393.57,496.508,389.1,492.039,383.589,492.039z M267.489,492.039H132.242v-73.817c11.671,8.341,25.817,13.065,40.587,13.065
			c38.503,0,69.827-31.324,69.827-69.827c0-11.553-2.81-22.752-8.187-32.813c8.596-10.006,14.475-21.787,17.285-34.497
			l15.735,10.579V492.039z"/>
	</g>
</g>
<g>
	<g>
		<path d="M272.146,37.26c-32.286,0-58.553,26.267-58.553,58.553c0,5.511,4.469,9.981,9.981,9.981s9.981-4.469,9.981-9.981
			c0-21.279,17.312-38.592,38.592-38.592c5.511,0,9.98-4.469,9.98-9.981S277.658,37.26,272.146,37.26z"/>
	</g>
</g>
<g>
	<g>
		<path d="M382.433,106.459c-5.511,0-9.981,4.469-9.981,9.981s4.469,9.981,9.981,9.981c13.227,0,23.988,10.761,23.988,23.988
			c0,5.511,4.469,9.981,9.98,9.981s9.981-4.469,9.981-9.981C426.382,126.175,406.667,106.459,382.433,106.459z"/>
	</g>
</g>
<g>
</g>
<g>
</g>
<g>
</g>
<g>
</g>
<g>
</g>
<g>
</g>
<g>
</g>
<g>
</g>
<g>
</g>
<g>
</g>
<g>
</g>
<g>
</g>
<g>
</g>
<g>
</g>
<g>
</g>
</svg>
